<?xml version="1.0" encoding="UTF-8" standalone="no"?>
<!-- Created with Inkscape (http://www.inkscape.org/) -->

<svg
   xmlns:dc="http://purl.org/dc/elements/1.1/"
   xmlns:cc="http://creativecommons.org/ns#"
   xmlns:rdf="http://www.w3.org/1999/02/22-rdf-syntax-ns#"
   xmlns:svg="http://www.w3.org/2000/svg"
   xmlns="http://www.w3.org/2000/svg"
   xmlns:sodipodi="http://sodipodi.sourceforge.net/DTD/sodipodi-0.dtd"
   xmlns:inkscape="http://www.inkscape.org/namespaces/inkscape"
   width="3mm"
   height="3mm"
   viewBox="0 0 3 3"
   version="1.1"
   id="svg8"
   inkscape:version="0.92.2 (5c3e80d, 2017-08-06)"
   sodipodi:docname="icon.svg">
  <defs
     id="defs2" />
  <sodipodi:namedview
     id="base"
     pagecolor="#ffffff"
     bordercolor="#666666"
     borderopacity="1.0"
     inkscape:pageopacity="0.0"
     inkscape:pageshadow="2"
     inkscape:zoom="64"
     inkscape:cx="5.4531152"
     inkscape:cy="6.2525839"
     inkscape:document-units="mm"
     inkscape:current-layer="layer1"
     showgrid="false"
     inkscape:snap-bbox="true"
     inkscape:window-width="3840"
     inkscape:window-height="2075"
     inkscape:window-x="0"
     inkscape:window-y="0"
     inkscape:window-maximized="1"
     fit-margin-top="0"
     fit-margin-left="0"
     fit-margin-right="0"
     fit-margin-bottom="0" />
  <metadata
     id="metadata5">
    <rdf:RDF>
      <cc:Work
         rdf:about="">
        <dc:format>image/svg+xml</dc:format>
        <dc:type
           rdf:resource="http://purl.org/dc/dcmitype/StillImage" />
        <dc:title></dc:title>
      </cc:Work>
    </rdf:RDF>
  </metadata>
  <g
     inkscape:label="Layer 1"
     inkscape:groupmode="layer"
     id="layer1"
     transform="translate(-57.952019,-141.82187)">
    <rect
       style="fill:#272e33;fill-opacity:1;stroke:none;stroke-width:0;stroke-miterlimit:4;stroke-dasharray:none;stroke-opacity:0.32258067"
       id="rect884"
       width="3"
       height="3"
       x="57.952019"
       y="141.82187"
       ry="0.25218099"
       rx="0.25218099" />
    <path
       id="rect938"
       style="fill:none;fill-opacity:0.4258065;stroke:#fdfdfd;stroke-width:0.40000001;stroke-miterlimit:4;stroke-dasharray:none;stroke-opacity:1"
       d="m 58.589552,143.32187 h 1.724934 c 0.1108,0 0.2,0.0892 0.2,0.2 v 0.5219 c 0,0.1108 -0.0892,0.2 -0.2,0.2 h -1.724934 c -0.1108,0 -0.2,-0.0892 -0.2,-0.2 v -0.5219 c 0,-0.1108 0.0892,-0.2 0.2,-0.2 z m 0,-0.92191 h 1.724934 c 0.1108,0 0.2,0.0892 0.2,0.2 v 0.52191 c 0,0.1108 -0.0892,0.2 -0.2,0.2 h -1.724934 c -0.1108,0 -0.2,-0.0892 -0.2,-0.2 v -0.52191 c 0,-0.1108 0.0892,-0.2 0.2,-0.2 z"
       inkscape:connector-curvature="0" />
  </g>
</svg>
